<svg xmlns="http://www.w3.org/2000/svg" viewBox="0 0 480 360" fill="none" stroke="#ffffff" stroke-width="2.4" stroke-linecap="round" stroke-linejoin="round">
  <!-- soleil -->
  <circle cx="92" cy="62" r="22"/>
  <line x1="92" y1="24" x2="92" y2="14"/>
  <line x1="54" y1="62" x2="44" y2="62"/>
  <line x1="64" y1="34" x2="57" y2="27"/>
  <line x1="120" y1="34" x2="127" y2="27"/>

  <!-- grue de chantier -->
  <line x1="436" y1="96" x2="436" y2="318"/>
  <line x1="344" y1="108" x2="468" y2="108"/>
  <line x1="436" y1="96" x2="420" y2="108"/>
  <line x1="436" y1="96" x2="452" y2="108"/>
  <line x1="372" y1="108" x2="372" y2="128"/>

  <!-- immeuble gauche -->
  <rect x="64" y="170" width="104" height="150" rx="3" fill="rgba(255,255,255,0.05)"/>
  <rect x="82" y="190" width="22" height="24" rx="2"/>
  <rect x="128" y="190" width="22" height="24" rx="2"/>
  <rect x="82" y="232" width="22" height="24" rx="2" fill="#fbeae5" stroke="none"/>
  <rect x="128" y="232" width="22" height="24" rx="2"/>
  <rect x="82" y="274" width="22" height="24" rx="2"/>
  <rect x="128" y="274" width="22" height="24" rx="2"/>

  <!-- immeuble central (le plus haut) -->
  <rect x="186" y="96" width="116" height="224" rx="3" fill="rgba(255,255,255,0.07)"/>
  <rect x="200" y="116" width="22" height="24" rx="2"/>
  <rect x="234" y="116" width="22" height="24" rx="2"/>
  <rect x="268" y="116" width="22" height="24" rx="2"/>
  <rect x="200" y="154" width="22" height="24" rx="2"/>
  <rect x="234" y="154" width="22" height="24" rx="2" fill="#bf3826" stroke="none"/>
  <rect x="268" y="154" width="22" height="24" rx="2"/>
  <rect x="200" y="192" width="22" height="24" rx="2"/>
  <rect x="234" y="192" width="22" height="24" rx="2"/>
  <rect x="268" y="192" width="22" height="24" rx="2"/>
  <rect x="200" y="230" width="22" height="24" rx="2" fill="#fbeae5" stroke="none"/>
  <rect x="234" y="230" width="22" height="24" rx="2"/>
  <rect x="268" y="230" width="22" height="24" rx="2"/>
  <!-- porte -->
  <rect x="230" y="284" width="32" height="36" rx="2"/>

  <!-- immeuble droit -->
  <rect x="312" y="142" width="100" height="178" rx="3" fill="rgba(255,255,255,0.05)"/>
  <rect x="330" y="162" width="22" height="24" rx="2"/>
  <rect x="372" y="162" width="22" height="24" rx="2"/>
  <rect x="330" y="202" width="22" height="24" rx="2"/>
  <rect x="372" y="202" width="22" height="24" rx="2" fill="#fbeae5" stroke="none"/>
  <rect x="330" y="242" width="22" height="24" rx="2"/>
  <rect x="372" y="242" width="22" height="24" rx="2"/>
  <rect x="330" y="282" width="22" height="24" rx="2"/>
  <rect x="372" y="282" width="22" height="24" rx="2"/>

  <!-- arbre -->
  <circle cx="36" cy="298" r="18" fill="rgba(255,255,255,0.05)"/>
  <line x1="36" y1="316" x2="36" y2="320"/>

  <!-- sol -->
  <line x1="20" y1="320" x2="462" y2="320"/>
</svg>
